<mxfile host="app.diagrams.net" modified="2020-10-20T08:56:25.969Z" agent="5.0 (Windows NT 10.0; Win64; x64) AppleWebKit/537.36 (KHTML, like Gecko) Chrome/86.0.4240.75 Safari/537.36" etag="vmjawBNAe-XRWUZj1VkV" version="13.8.0" type="github">
  <diagram id="C5RBs43oDa-KdzZeNtuy" name="Page-1">
    <mxGraphModel dx="1038" dy="580" grid="1" gridSize="10" guides="1" tooltips="1" connect="1" arrows="1" fold="1" page="1" pageScale="1" pageWidth="827" pageHeight="1169" math="0" shadow="0">
      <root>
        <mxCell id="WIyWlLk6GJQsqaUBKTNV-0" />
        <mxCell id="WIyWlLk6GJQsqaUBKTNV-1" parent="WIyWlLk6GJQsqaUBKTNV-0" />
        <mxCell id="Sh_7xRnzT8UGY4DojzcR-0" value="Book" style="html=1;" vertex="1" parent="WIyWlLk6GJQsqaUBKTNV-1">
          <mxGeometry x="350" y="140" width="110" height="50" as="geometry" />
        </mxCell>
        <mxCell id="Sh_7xRnzT8UGY4DojzcR-2" value="Author" style="html=1;" vertex="1" parent="WIyWlLk6GJQsqaUBKTNV-1">
          <mxGeometry x="110" y="60" width="110" height="50" as="geometry" />
        </mxCell>
        <mxCell id="Sh_7xRnzT8UGY4DojzcR-3" value="Publisher" style="html=1;" vertex="1" parent="WIyWlLk6GJQsqaUBKTNV-1">
          <mxGeometry x="120" y="210" width="110" height="50" as="geometry" />
        </mxCell>
        <mxCell id="Sh_7xRnzT8UGY4DojzcR-4" value="Mystery category" style="html=1;" vertex="1" parent="WIyWlLk6GJQsqaUBKTNV-1">
          <mxGeometry x="570" y="210" width="110" height="50" as="geometry" />
        </mxCell>
        <mxCell id="Sh_7xRnzT8UGY4DojzcR-5" value="Fiction category" style="html=1;" vertex="1" parent="WIyWlLk6GJQsqaUBKTNV-1">
          <mxGeometry x="570" y="60" width="110" height="50" as="geometry" />
        </mxCell>
        <mxCell id="Sh_7xRnzT8UGY4DojzcR-6" value="Owner" style="html=1;" vertex="1" parent="WIyWlLk6GJQsqaUBKTNV-1">
          <mxGeometry x="350" y="330" width="110" height="50" as="geometry" />
        </mxCell>
        <mxCell id="Sh_7xRnzT8UGY4DojzcR-8" value="Library" style="html=1;" vertex="1" parent="WIyWlLk6GJQsqaUBKTNV-1">
          <mxGeometry x="350" y="480" width="110" height="50" as="geometry" />
        </mxCell>
        <mxCell id="Sh_7xRnzT8UGY4DojzcR-9" value="" style="endArrow=diamondThin;endFill=1;endSize=24;html=1;entryX=1;entryY=0.5;entryDx=0;entryDy=0;" edge="1" parent="WIyWlLk6GJQsqaUBKTNV-1" source="Sh_7xRnzT8UGY4DojzcR-0" target="Sh_7xRnzT8UGY4DojzcR-2">
          <mxGeometry width="160" relative="1" as="geometry">
            <mxPoint x="130" y="140" as="sourcePoint" />
            <mxPoint x="290" y="140" as="targetPoint" />
          </mxGeometry>
        </mxCell>
        <mxCell id="Sh_7xRnzT8UGY4DojzcR-10" value="" style="endArrow=diamondThin;endFill=1;endSize=24;html=1;entryX=1;entryY=0.5;entryDx=0;entryDy=0;exitX=0;exitY=1;exitDx=0;exitDy=0;" edge="1" parent="WIyWlLk6GJQsqaUBKTNV-1" source="Sh_7xRnzT8UGY4DojzcR-0" target="Sh_7xRnzT8UGY4DojzcR-3">
          <mxGeometry width="160" relative="1" as="geometry">
            <mxPoint x="330" y="300" as="sourcePoint" />
            <mxPoint x="490" y="300" as="targetPoint" />
          </mxGeometry>
        </mxCell>
        <mxCell id="Sh_7xRnzT8UGY4DojzcR-11" value="" style="endArrow=block;endSize=16;endFill=0;html=1;entryX=1;entryY=0;entryDx=0;entryDy=0;exitX=0;exitY=0.5;exitDx=0;exitDy=0;" edge="1" parent="WIyWlLk6GJQsqaUBKTNV-1" source="Sh_7xRnzT8UGY4DojzcR-5" target="Sh_7xRnzT8UGY4DojzcR-0">
          <mxGeometry width="160" relative="1" as="geometry">
            <mxPoint x="330" y="300" as="sourcePoint" />
            <mxPoint x="490" y="300" as="targetPoint" />
          </mxGeometry>
        </mxCell>
        <mxCell id="Sh_7xRnzT8UGY4DojzcR-13" value="" style="endArrow=block;endSize=16;endFill=0;html=1;entryX=1;entryY=1;entryDx=0;entryDy=0;exitX=0;exitY=0.5;exitDx=0;exitDy=0;" edge="1" parent="WIyWlLk6GJQsqaUBKTNV-1" source="Sh_7xRnzT8UGY4DojzcR-4" target="Sh_7xRnzT8UGY4DojzcR-0">
          <mxGeometry width="160" relative="1" as="geometry">
            <mxPoint x="330" y="300" as="sourcePoint" />
            <mxPoint x="490" y="300" as="targetPoint" />
          </mxGeometry>
        </mxCell>
        <mxCell id="Sh_7xRnzT8UGY4DojzcR-16" value="has" style="endArrow=block;endFill=1;html=1;edgeStyle=orthogonalEdgeStyle;align=left;verticalAlign=top;exitX=0.5;exitY=0;exitDx=0;exitDy=0;entryX=0.5;entryY=1;entryDx=0;entryDy=0;" edge="1" parent="WIyWlLk6GJQsqaUBKTNV-1" source="Sh_7xRnzT8UGY4DojzcR-6" target="Sh_7xRnzT8UGY4DojzcR-0">
          <mxGeometry x="-0.1429" y="15" relative="1" as="geometry">
            <mxPoint x="140" y="420" as="sourcePoint" />
            <mxPoint x="300" y="420" as="targetPoint" />
            <mxPoint as="offset" />
          </mxGeometry>
        </mxCell>
        <mxCell id="Sh_7xRnzT8UGY4DojzcR-17" value="1" style="edgeLabel;resizable=0;html=1;align=left;verticalAlign=bottom;" connectable="0" vertex="1" parent="Sh_7xRnzT8UGY4DojzcR-16">
          <mxGeometry x="-1" relative="1" as="geometry" />
        </mxCell>
        <mxCell id="Sh_7xRnzT8UGY4DojzcR-18" value="fowns" style="endArrow=diamondThin;endFill=0;endSize=24;html=1;entryX=0.5;entryY=0;entryDx=0;entryDy=0;exitX=0.5;exitY=1;exitDx=0;exitDy=0;" edge="1" parent="WIyWlLk6GJQsqaUBKTNV-1" source="Sh_7xRnzT8UGY4DojzcR-6" target="Sh_7xRnzT8UGY4DojzcR-8">
          <mxGeometry width="160" relative="1" as="geometry">
            <mxPoint x="330" y="400" as="sourcePoint" />
            <mxPoint x="490" y="400" as="targetPoint" />
          </mxGeometry>
        </mxCell>
      </root>
    </mxGraphModel>
  </diagram>
</mxfile>
